<svg height='300px' width='300px'  fill="#ffffff" xmlns="http://www.w3.org/2000/svg" xmlns:xlink="http://www.w3.org/1999/xlink" version="1.1" x="0px" y="0px" viewBox="0 0 60 54.97" enable-background="new 0 0 60 54.97" xml:space="preserve"><path d="M59.6,20.56l-3.98-2.98L34.41,1.46c-2.56-1.95-6.27-1.95-8.83,0L4.38,17.58L0.4,20.56c-0.44,0.33-0.53,0.96-0.2,1.4  c0.2,0.26,0.5,0.4,0.8,0.4c0.21,0,0.42-0.07,0.6-0.2l2.4-1.8v3.22c-0.22,0.12-0.43,0.26-0.59,0.43l-0.53,0.45  c-0.92,0.49-1.61,1.46-1.82,2.55c-0.11,0.6-0.08,1.23,0.1,1.83c0.1,0.33,0.02,0.73-0.21,1.06c-1.05,1.55-1.26,3.71-0.53,5.37  c0.11,0.25,0.25,0.49,0.41,0.71c0.23,0.31,0.31,0.72,0.22,1.11c-0.05,0.21-0.09,0.42-0.1,0.62c-0.08,0.89,0.1,1.76,0.25,2.46  c0.16,0.74,0.39,1.85,1.21,2.55C2.86,43.11,3.4,43.31,4,43.35v3.01H1.35c-0.38,0-0.74,0.17-0.99,0.45c-0.25,0.29-0.36,0.67-0.3,1.04  l1.08,7.12h5.7h2.02H12h37h4.15c1.57,0,2.85-1.28,2.85-2.85V20.36l2.4,1.8c0.18,0.13,0.39,0.2,0.6,0.2c0.3,0,0.6-0.14,0.8-0.4  C60.13,21.52,60.04,20.89,59.6,20.56z M3.17,39.77c-0.13-0.63-0.27-1.28-0.21-1.87c0.01-0.11,0.03-0.22,0.05-0.32  c0.24-0.96,0.03-2-0.55-2.78c-0.07-0.1-0.14-0.21-0.19-0.32c-0.46-1.04-0.31-2.46,0.35-3.45c0.57-0.84,0.74-1.84,0.47-2.75  c-0.09-0.29-0.11-0.61-0.05-0.9c0.1-0.52,0.42-0.98,0.84-1.17l0.91-0.74c0.13-0.14,0.31-0.2,0.48-0.24  c0.09-0.02,0.18-0.03,0.27-0.03c0.01,0,0.02,0,0.04,0c0.12,0,0.23,0.01,0.35,0.02c0.75,0.11,1.36,0.5,1.65,1.06  c0.15,0.3,0.2,0.7,0.13,1.05c-0.04,0.17-0.04,0.33-0.05,0.5c-0.03,0.74,0.19,1.48,0.66,2.05c0.12,0.15,0.21,0.34,0.25,0.53  c0.07,0.33,0.04,0.73-0.08,1.18c-0.06,0.22-0.13,0.45-0.22,0.7c-0.19,0.49-0.41,0.9-0.65,1.24c-0.65,0.9-0.75,2.17-0.26,3.32  c0.24,0.54,0.27,1.24,0.1,1.81c-0.39,1.3-1.55,2.06-2.2,2.4c-0.19,0.1-0.38,0.17-0.56,0.23l-0.03,0.01  c-0.18,0.05-0.34,0.08-0.49,0.08c-0.25,0-0.37-0.08-0.44-0.14C3.42,40.95,3.27,40.24,3.17,39.77z M7.14,52.97H2.86l-0.7-4.61H4h3.84  L7.14,52.97z M14,52.97v-3h33v3H14z M47,39.97v3H14v-3H47z M14,37.97v-3h33v3H14z M47,32.97H14v-3h33V32.97z M14,44.97h33v3H14  V44.97z M47,27.97H14v-3h33V27.97z M53.15,52.97H49v-30H12v30H9.16l0.77-5.12c0.06-0.37-0.05-0.75-0.3-1.04  c-0.25-0.29-0.6-0.45-0.98-0.45H6V42.9c0.06-0.03,0.11-0.05,0.17-0.08c1.61-0.83,2.75-2.11,3.2-3.59c0.31-1.02,0.24-2.21-0.18-3.18  c-0.16-0.36-0.19-0.75-0.1-1.05c0.03-0.11,0.08-0.21,0.14-0.29c0.34-0.47,0.64-1.03,0.9-1.68c0.38-0.96,0.52-1.8,0.46-2.57  c-0.01-0.15-0.02-0.29-0.05-0.43c-0.1-0.52-0.33-1-0.66-1.41c-0.19-0.22-0.27-0.57-0.2-0.86c0.17-0.81,0.06-1.68-0.31-2.39  c-0.59-1.13-1.76-1.92-3.15-2.12c-0.05-0.01-0.11-0.01-0.16-0.02L28.17,6.39c1.07-0.82,2.58-0.82,3.65,0L54,23.24v28.88  C54,52.59,53.62,52.97,53.15,52.97z M54,20.73L33.04,4.8c-1.79-1.36-4.29-1.36-6.07,0L6,20.73v-1.87l3.6-2.7  c0.05-0.03,0.07-0.08,0.11-0.12L26.8,3.05c1.86-1.41,4.55-1.41,6.41,0l12.97,9.86c0.06,0.09,0.13,0.18,0.22,0.25l7.6,5.7V20.73z"></path></svg>
